<?xml version="1.0" encoding="UTF-8"?>
<svg version="1.1" xmlns="http://www.w3.org/2000/svg" width="612" height="408">
<path d="M0 0 C0.78101578 -0.00029205 1.56203156 -0.00058411 2.36671448 -0.00088501 C4.9368925 0.00050342 7.50677719 0.01604157 10.0769043 0.03173828 C11.86337628 0.03547014 13.64985031 0.0383163 15.43632507 0.04031372 C20.12991015 0.04793654 24.82337073 0.06757342 29.51690674 0.08972168 C34.30967525 0.11020923 39.10246395 0.11932166 43.89526367 0.12939453 C53.29311353 0.1508206 62.69083844 0.18599173 72.08862305 0.22705078 C72.08862305 7.15705078 72.08862305 14.08705078 72.08862305 21.22705078 C36.44862305 21.72205078 36.44862305 21.72205078 0.08862305 22.22705078 C0.08862305 26.51705078 0.08862305 30.80705078 0.08862305 35.22705078 C2.84302734 35.22535889 2.84302734 35.22535889 5.65307617 35.22363281 C11.74416514 35.22691324 17.83463193 35.25784852 23.92551422 35.30732918 C27.6157963 35.3363087 31.3054468 35.35444586 34.99584961 35.34716797 C38.56250734 35.34054367 42.1279205 35.36323143 45.69432068 35.40560532 C47.70593987 35.4220451 49.71773186 35.4087187 51.72937012 35.39480591 C58.67303394 35.50431871 63.28279067 35.96618253 68.6048584 40.63156128 C75.28522683 47.81494964 75.32374523 54.47961579 75.40112305 63.91455078 C75.44462891 65.65381836 75.44462891 65.65381836 75.48901367 67.42822266 C75.55291007 76.0738962 74.27171763 81.1345006 68.90112305 88.03955078 C60.60966926 94.48845928 50.6667561 93.63978411 40.70581055 93.55517578 C39.12118714 93.5521118 37.53656101 93.55024055 35.95193481 93.54949951 C32.6453404 93.54491872 29.33899254 93.53057809 26.0324707 93.50830078 C21.80832348 93.47997405 17.58436924 93.46908155 13.36013603 93.46461868 C9.30866976 93.45944841 5.25725113 93.44492417 1.20581055 93.43017578 C0.4408514 93.42829506 -0.32410774 93.42641434 -1.11224747 93.42447662 C-3.2916118 93.41755157 -5.47082983 93.4038917 -7.65014648 93.38818359 C-8.88652863 93.38135559 -10.12291077 93.37452759 -11.39675903 93.36749268 C-14.91137695 93.22705078 -14.91137695 93.22705078 -21.91137695 92.22705078 C-21.91137695 85.62705078 -21.91137695 79.02705078 -21.91137695 72.22705078 C-13.26995198 71.28975092 -4.77857027 71.10985853 3.90893555 71.16455078 C5.30329212 71.16896649 6.69765071 71.17278036 8.0920105 71.17602539 C12.46591134 71.18733407 16.83975649 71.20664076 21.21362305 71.22705078 C26.32061217 71.25067431 31.42757238 71.27099642 36.53460312 71.2829895 C38.57381987 71.28947881 40.61294411 71.30197333 42.65213013 71.31469727 C43.87785736 71.31800049 45.10358459 71.32130371 46.36645508 71.32470703 C47.45024445 71.32994385 48.53403381 71.33518066 49.65066528 71.34057617 C52.03644276 71.50371442 52.03644276 71.50371442 53.08862305 70.22705078 C53.16106358 68.20740879 53.17239493 66.18537955 53.15112305 64.16455078 C53.14209961 63.05982422 53.13307617 61.95509766 53.1237793 60.81689453 C53.11217773 59.96224609 53.10057617 59.10759766 53.08862305 58.22705078 C52.36945206 58.22340515 51.65028107 58.21975952 50.90931702 58.21600342 C44.09829922 58.177978 37.28766993 58.12096168 30.47699833 58.04314804 C26.97634701 58.00380769 23.47594215 57.97155423 19.97509766 57.95605469 C15.94092345 57.937872 11.90766763 57.88786298 7.8737793 57.83642578 C6.62967789 57.83519714 5.38557648 57.83396851 4.10377502 57.83270264 C-3.4952622 57.70577597 -10.64712215 57.13508206 -16.49009705 51.7802124 C-22.77868984 44.59199823 -22.2773533 38.17215572 -22.28637695 28.97705078 C-22.32311523 27.02992188 -22.32311523 27.02992188 -22.3605957 25.04345703 C-22.38328357 17.62452396 -22.03515599 12.47703515 -17.91137695 6.22705078 C-12.49514629 0.94969783 -7.36941823 -0.07258107 0 0 Z " fill="#74E332" transform="translate(127.911376953125,153.77294921875)"/>
<path d="M0 0 C6.93 0 13.86 0 21 0 C21.33 23.1 21.66 46.2 22 70 C28.29626017 70.83384784 28.29626017 70.83384784 34.51660156 71.14526367 C35.30391663 71.15164352 36.09123169 71.15802338 36.90240479 71.16459656 C37.72351746 71.16570938 38.54463013 71.1668222 39.390625 71.16796875 C40.69117828 71.17296135 40.69117828 71.17296135 42.01800537 71.17805481 C43.8365425 71.18308502 45.65508873 71.18546435 47.47363281 71.18530273 C50.25601151 71.18750476 53.03800294 71.20574377 55.8203125 71.22460938 C57.59374865 71.22754102 59.36718667 71.22952735 61.140625 71.23046875 C62.38443939 71.24124702 62.38443939 71.24124702 63.65338135 71.25224304 C69.16038531 71.34181084 69.16038531 71.34181084 74 69 C75.11016344 65.66950968 75.15852609 63.11054334 75.20532227 59.60083008 C75.21522186 58.95665634 75.22512146 58.3124826 75.23532104 57.64878845 C75.26687467 55.5224066 75.29166905 53.39600242 75.31640625 51.26953125 C75.33698109 49.79407678 75.3579777 48.31862814 75.37937927 46.84318542 C75.43454526 42.96180949 75.48397862 39.08038085 75.53222656 35.19891357 C75.58248158 31.23737909 75.63814676 27.27592106 75.69335938 23.31445312 C75.80087401 15.54303171 75.90183377 7.77154615 76 0 C82.93 0 89.86 0 97 0 C97.85059975 4.25299874 98.10804751 7.59478636 98.06933594 11.88232422 C98.06215294 12.89067825 98.06215294 12.89067825 98.05482483 13.91940308 C98.03720955 16.1312635 98.01144044 18.34292371 97.984375 20.5546875 C97.96766638 22.10018871 97.95100451 23.64569043 97.93438721 25.19119263 C97.89797326 28.42749232 97.85676251 31.66369438 97.81298828 34.89990234 C97.75804458 39.0343903 97.72147046 43.16882164 97.68935776 47.30354118 C97.66140968 50.49511687 97.62035148 53.68642901 97.57575226 56.87781143 C97.55663758 58.40148829 97.54230062 59.92523324 97.53295135 61.44900131 C97.51852191 63.58606574 97.48554867 65.72211521 97.44824219 67.85888672 C97.43412292 69.07180389 97.42000366 70.28472107 97.40545654 71.53439331 C96.57925334 78.5962977 93.29428675 84.30961512 88 89 C80.40272752 93.39689749 72.79535071 93.58761607 64.21484375 93.53125 C62.91857559 93.5350769 61.62230743 93.53890381 60.28675842 93.54284668 C57.55938367 93.5487027 54.83253732 93.54030563 52.10522461 93.52148438 C48.63310499 93.49867297 45.16222111 93.51185462 41.69014645 93.53577423 C38.34411662 93.5538113 34.99840852 93.54113571 31.65234375 93.53125 C29.80043678 93.54339539 29.80043678 93.54339539 27.91111755 93.55578613 C19.26560151 93.46248022 12.75225961 92.26283444 6.125 86.5 C5.073125 85.2625 5.073125 85.2625 4 84 C3.1646875 83.13375 3.1646875 83.13375 2.3125 82.25 C-2.47817208 74.03741929 -1.17341325 63.73764741 -0.9765625 54.58984375 C-0.95035027 53.01088457 -0.925087 51.43190937 -0.90072632 49.85292053 C-0.83451663 45.72477735 -0.75553167 41.59697668 -0.67376709 37.46911621 C-0.59241277 33.24581917 -0.52330407 29.02232303 -0.453125 24.79882812 C-0.3139802 16.5323021 -0.16018802 8.26614505 0 0 Z " fill="#76EB31" transform="translate(214,154)"/>
<path d="M0 0 C0.71829737 -0.00226556 1.43659474 -0.00453111 2.17665869 -0.00686532 C4.59569894 -0.01322097 7.01468338 -0.01237496 9.43373108 -0.0115509 C11.16312737 -0.01454141 12.89252299 -0.01794368 14.62191772 -0.02172852 C19.32846575 -0.03058348 24.03499561 -0.03290725 28.74155116 -0.0335443 C32.66570401 -0.03449217 36.5898526 -0.03816903 40.51400381 -0.0417164 C49.76914946 -0.04986654 59.02428538 -0.05230011 68.2794342 -0.05158997 C77.83837033 -0.05098892 87.39725008 -0.06154478 96.95617193 -0.07733363 C105.1532216 -0.09039239 113.3502528 -0.09577457 121.5473128 -0.09513456 C126.44739389 -0.09487909 131.34742489 -0.09775696 136.24749565 -0.10831261 C140.85457786 -0.11796571 145.4615618 -0.11809202 150.06864738 -0.11079597 C151.76218814 -0.10974667 153.45573492 -0.11213339 155.14926529 -0.11815643 C157.45599115 -0.1258307 159.76237376 -0.12126217 162.0690918 -0.11352539 C163.3616133 -0.11407016 164.65413481 -0.11461493 165.98582363 -0.1151762 C169.09803772 0.13371277 169.09803772 0.13371277 172.09803772 2.13371277 C173.03922857 4.95728533 173.22559569 6.68276263 173.23175049 9.60562134 C173.23814796 10.97885056 173.23814796 10.97885056 173.24467468 12.37982178 C173.2442215 13.38198227 173.24376831 14.38414276 173.24330139 15.41667175 C173.24666 16.47382385 173.25001862 17.53097595 173.253479 18.62016296 C173.2629973 22.12338935 173.2649325 25.626568 173.26600647 29.12980652 C173.26921823 31.55974345 173.27258223 33.98968018 173.27609253 36.4196167 C173.28208585 41.51645862 173.2839322 46.61328358 173.28334045 51.71012878 C173.28323877 58.24850327 173.29689643 64.7867693 173.31411266 71.32511806 C173.32521784 76.34447736 173.32726012 81.3638103 173.32673073 86.38318062 C173.32791287 88.79416846 173.33234772 91.20515695 173.3400631 93.61613274 C173.34983382 96.98461943 173.34699649 100.35286894 173.34095764 103.72135925 C173.34657715 104.72149551 173.35219666 105.72163177 173.35798645 106.7520752 C173.35379196 107.67038116 173.34959747 108.58868713 173.34527588 109.53482056 C173.34582065 110.33104041 173.34636541 111.12726027 173.34692669 111.94760799 C173.05793291 114.48597148 172.52385882 116.01144145 171.09803772 118.13371277 C167.67654869 120.63152473 164.25539191 120.39013109 160.12760925 120.40113831 C159.42605394 120.40566942 158.72449863 120.41020053 158.00168407 120.41486895 C155.65108524 120.42752837 153.30071765 120.42589161 150.9500885 120.42424011 C149.26467084 120.4302244 147.57925591 120.43702971 145.8938446 120.44459534 C141.31529759 120.46227252 136.73682531 120.46695143 132.15824747 120.46822691 C128.33616943 120.47012582 124.5141088 120.47748325 120.69203746 120.4845711 C111.67452988 120.50085911 102.65706223 120.50573967 93.63954163 120.50431824 C84.33730296 120.50311661 75.03529624 120.52422171 65.73311627 120.55580556 C57.74658495 120.58195613 49.76012944 120.59268605 41.77355564 120.59140742 C37.00357276 120.59089743 32.23379598 120.59660073 27.46385574 120.61776352 C22.9772937 120.63712543 18.49113481 120.63728448 14.00455856 120.62273026 C12.35903586 120.62063852 10.71348806 120.62536479 9.06800842 120.63745117 C6.81900986 120.65289903 4.57140228 120.64360028 2.32243347 120.62818909 C1.06477236 120.62927862 -0.19288876 120.63036816 -1.48866081 120.63149071 C-5.56783796 120.03660496 -7.74202612 118.74373491 -10.90196228 116.13371277 C-11.83457285 113.33588105 -12.03137089 111.63678936 -12.04240417 108.74446106 C-12.04811432 107.84724838 -12.05382446 106.95003571 -12.05970764 106.02563477 C-12.0608255 105.0437468 -12.06194336 104.06185883 -12.06309509 103.05021667 C-12.06806 102.01417801 -12.0730249 100.97813934 -12.07814026 99.91070557 C-12.09276696 96.47722209 -12.09956442 93.0437848 -12.10508728 89.61027527 C-12.11083789 87.22757465 -12.11659563 84.84487405 -12.12236023 82.46217346 C-12.13287137 77.46368697 -12.13871344 72.46521657 -12.14219666 67.46672058 C-12.14768451 61.05843281 -12.17171848 54.65035719 -12.20016861 48.242136 C-12.21878092 43.31967037 -12.22399982 38.397256 -12.22553253 33.47475815 C-12.22856228 31.11203729 -12.23660157 28.7493174 -12.24971771 26.38663101 C-12.26674999 23.08292176 -12.26490474 19.77973312 -12.25840759 16.47599792 C-12.26762238 15.49815842 -12.27683716 14.52031891 -12.28633118 13.5128479 C-12.256025 8.59971284 -12.1990894 5.07553691 -8.90196228 1.13371277 C-5.94478208 -0.34487733 -3.30168813 0.00428212 0 0 Z M-3.90196228 7.13371277 C-3.90196228 41.78371277 -3.90196228 76.43371277 -3.90196228 112.13371277 C52.19803772 112.13371277 108.29803772 112.13371277 166.09803772 112.13371277 C167.01877159 77.14582559 166.6203676 42.129815 166.09803772 7.13371277 C109.99803772 7.13371277 53.89803772 7.13371277 -3.90196228 7.13371277 Z " fill="#DEDEDE" transform="translate(341.90196228027344,140.8662872314453)"/>
<path d="M0 0 C0.02684312 2.81256281 0.04676188 5.62487241 0.0625 8.4375 C0.07087891 9.23994141 0.07925781 10.04238281 0.08789062 10.86914062 C0.0965143 12.91295221 0.0522815 14.95683902 0 17 C-0.495 17.495 -0.495 17.495 -1 18 C-9.25 18 -17.5 18 -26 18 C-26 37.47 -26 56.94 -26 77 C-32.27 77 -38.54 77 -45 77 C-45 57.53 -45 38.06 -45 18 C-53.25 18 -61.5 18 -70 18 C-71 17 -71 17 -71.09765625 13.18359375 C-71.09098089 11.60153318 -71.07901875 10.01948841 -71.0625 8.4375 C-71.05798828 7.63119141 -71.05347656 6.82488281 -71.04882812 5.99414062 C-71.03700518 3.99606244 -71.01906914 1.99802217 -71 0 C-62.18580832 -0.15379848 -53.37154543 -0.30197975 -44.5571394 -0.4429636 C-40.4643912 -0.50860303 -36.37169426 -0.57618686 -32.27905273 -0.64819336 C-28.33043612 -0.71759467 -24.38176661 -0.78191583 -20.43300819 -0.84269524 C-18.92547914 -0.86679599 -17.41797834 -0.89273621 -15.91051292 -0.92053413 C-13.80130812 -0.95911593 -11.69209816 -0.99119347 -9.58276367 -1.02172852 C-8.38141281 -1.04171402 -7.18006195 -1.06169952 -5.94230652 -1.08229065 C-3 -1 -3 -1 0 0 Z " fill="#EEEEEE" transform="translate(495,163)"/>
<path d="M0 0 C6.6 0 13.2 0 20 0 C20.02255176 9.89189783 20.04091552 19.7837787 20.05181217 29.67569637 C20.05704082 34.2684264 20.06413812 38.861138 20.07543945 43.45385742 C20.086269 47.88233688 20.09227698 52.31079856 20.09487724 56.73929024 C20.09673137 58.43265628 20.10035175 60.12602129 20.10573006 61.81937981 C20.1129414 64.18291232 20.1139909 66.54637045 20.11352539 68.90991211 C20.11712067 69.61697296 20.12071594 70.32403381 20.12442017 71.05252075 C20.11405216 75.88594784 20.11405216 75.88594784 19 77 C17.66956375 77.0983721 16.33406656 77.13078592 15 77.1328125 C14.195625 77.13410156 13.39125 77.13539063 12.5625 77.13671875 C11.716875 77.13285156 10.87125 77.12898438 10 77.125 C9.154375 77.12886719 8.30875 77.13273437 7.4375 77.13671875 C6.633125 77.13542969 5.82875 77.13414062 5 77.1328125 C4.2575 77.13168457 3.515 77.13055664 2.75 77.12939453 C1 77 1 77 0 76 C-0.09494733 73.62699131 -0.12559319 71.28321297 -0.11352539 68.90991211 C-0.11367142 68.16849472 -0.11381744 67.42707733 -0.1139679 66.66319275 C-0.11326865 64.20121379 -0.10547574 61.73930957 -0.09765625 59.27734375 C-0.09579211 57.57483461 -0.09436819 55.87232493 -0.09336853 54.16981506 C-0.08954302 49.68006927 -0.07971247 45.19035562 -0.06866455 40.70062256 C-0.05845113 36.12268509 -0.05387106 31.54474244 -0.04882812 26.96679688 C-0.03809022 17.97784816 -0.02049316 8.98893178 0 0 Z " fill="#ECECEC" transform="translate(392,163)"/>
<path d="M0 0 C0.82839159 4.33880171 1.1310347 8.44527243 1.14526367 12.85986328 C1.14862228 13.51755707 1.1519809 14.17525085 1.15544128 14.85287476 C1.164876 17.00870696 1.16689011 19.16446099 1.16796875 21.3203125 C1.17118481 22.82673168 1.17454914 24.33315056 1.17805481 25.83956909 C1.18402608 28.98826828 1.1858966 32.13694009 1.18530273 35.28564453 C1.18520083 39.31851863 1.1988913 43.35121781 1.21607494 47.38405037 C1.22719158 50.49129036 1.2292221 53.59848786 1.22869301 56.7057457 C1.22987215 58.19288617 1.23429029 59.68002777 1.24202538 61.16714859 C1.25182552 63.24453313 1.24894816 65.32153505 1.24291992 67.39892578 C1.24434494 68.5799588 1.24576996 69.76099182 1.24723816 70.97781372 C1 74 1 74 -1 78 C-6.94 78 -12.88 78 -19 78 C-20.19248244 74.42255268 -20.07943718 71.64316635 -20.02172852 67.86645508 C-20.01212097 67.14425278 -20.00251343 66.42205048 -19.99261475 65.67796326 C-19.95964351 63.2917195 -19.91930412 60.90565988 -19.87890625 58.51953125 C-19.8546033 56.86472726 -19.83075982 55.20991646 -19.80735779 53.55509949 C-19.7445343 49.2001266 -19.67546272 44.84527426 -19.60510254 40.49041748 C-19.53440344 36.04640186 -19.4695959 31.60230079 -19.40429688 27.15820312 C-19.27530689 18.43870746 -19.13971803 9.71933032 -19 1 C-16.02085163 0.83300069 -13.04168271 0.66638454 -10.0625 0.5 C-8.78729492 0.42845703 -8.78729492 0.42845703 -7.48632812 0.35546875 C-6.67744141 0.31035156 -5.86855469 0.26523438 -5.03515625 0.21875 C-4.2862915 0.17685547 -3.53742676 0.13496094 -2.76586914 0.09179688 C-1.84464901 0.0439082 -0.92246402 0 0 0 Z " fill="#EBEBEB" transform="translate(375,162)"/>
<path d="M0 0 C6.93 0 13.86 0 21 0 C21.85059975 4.25299874 22.10804751 7.59478636 22.06933594 11.88232422 C22.06215294 12.89067825 22.06215294 12.89067825 22.05482483 13.91940308 C22.03720955 16.1312635 22.01144044 18.34292371 21.984375 20.5546875 C21.96766638 22.10018871 21.95100451 23.64569043 21.93438721 25.19119263 C21.89797326 28.42749232 21.85676251 31.66369438 21.81298828 34.89990234 C21.75804458 39.0343903 21.72147046 43.16882164 21.68935776 47.30354118 C21.66140968 50.49511687 21.62035148 53.68642901 21.57575226 56.87781143 C21.55663758 58.40148829 21.54230062 59.92523324 21.53295135 61.44900131 C21.51852191 63.58606574 21.48554867 65.72211521 21.44824219 67.85888672 C21.43412292 69.07180389 21.42000366 70.28472107 21.40545654 71.53439331 C20.57900361 78.59843228 17.29287246 84.30630627 12 89 C4.30203292 93.49838907 -3.4034488 93.53305188 -12.1015625 93.390625 C-13.41917572 93.38496521 -14.73678894 93.37930542 -16.09432983 93.37347412 C-19.56332892 93.35834783 -23.03163656 93.31918309 -26.50036621 93.2746582 C-30.05353446 93.23342063 -33.60681665 93.21540294 -37.16015625 93.1953125 C-44.10705127 93.15267233 -51.05349226 93.08458369 -58 93 C-58 92.34 -58 91.68 -58 91 C-58.66 90.67 -59.32 90.34 -60 90 C-59.22547989 90.00222061 -58.45095978 90.00444122 -57.65296936 90.00672913 C-50.36878979 90.02673134 -43.08462345 90.04197377 -35.80042362 90.05181217 C-32.05516963 90.05704014 -28.30993824 90.06413622 -24.56469727 90.07543945 C-20.95318313 90.08627141 -17.34169079 90.09227749 -13.73016167 90.09487724 C-12.34939671 90.09673094 -10.968633 90.10035049 -9.58787727 90.10573006 C-7.66024048 90.11294447 -5.73258193 90.11340809 -3.80493164 90.11352539 C-2.70572891 90.115746 -1.60652618 90.11796661 -0.47401428 90.12025452 C1.9435147 90.28046633 1.9435147 90.28046633 3 89 C4.66617115 88.95936168 6.33388095 88.957279 8 89 C8 88.34 8 87.68 8 87 C9.65 86.67 11.3 86.34 13 86 C13 85.01 13 84.02 13 83 C13.66 83 14.32 83 15 83 C14.814375 82.236875 14.62875 81.47375 14.4375 80.6875 C14 78 14 78 15 75 C15.99 75 16.98 75 18 75 C18.33 51.24 18.66 27.48 19 3 C13.06 2.67 7.12 2.34 1 2 C1.00523682 4.01915527 1.01047363 6.03831055 1.01586914 8.11865234 C1.0324182 14.78027002 1.04347652 21.44188858 1.05181217 28.10352135 C1.05703699 32.14356954 1.06412739 36.18359672 1.07543945 40.22363281 C1.08628254 44.120441 1.09227987 48.01722895 1.09487724 51.91405106 C1.09672892 53.40284163 1.10034463 54.89163107 1.10573006 56.38041306 C1.11295934 58.46115285 1.11399014 60.54180832 1.11352539 62.62255859 C1.115746 63.80836517 1.11796661 64.99417175 1.12025452 66.21591187 C1 69 1 69 0 71 C-0.99 70.67 -1.98 70.34 -3 70 C-2.67657623 69.47432434 -2.35315247 68.94864868 -2.01992798 68.40704346 C-0.7119776 65.32026334 -0.71953674 62.83954198 -0.68115234 59.48730469 C-0.66608391 58.52082504 -0.66608391 58.52082504 -0.65071106 57.53482056 C-0.61992177 55.41384744 -0.60285622 53.2930003 -0.5859375 51.171875 C-0.56722238 49.69784464 -0.5476487 48.22382495 -0.5272522 46.74981689 C-0.47596115 42.87669166 -0.43631938 39.00353171 -0.39910889 35.13024902 C-0.35905017 31.17528719 -0.30796637 27.22046942 -0.2578125 23.265625 C-0.16108901 15.51050808 -0.07769231 7.75533521 0 0 Z " fill="#7BC94B" transform="translate(290,154)"/>
<path d="M0 0 C6.93 0 13.86 0 21 0 C21.33 23.1 21.66 46.2 22 70 C22.66 70.33 23.32 70.66 24 71 C22.35 70.67 20.7 70.34 19 70 C19 47.56 19 25.12 19 2 C13.39 2 7.78 2 2 2 C2 23.78 2 45.56 2 68 C1.34 68 0.68 68 0 68 C0 45.56 0 23.12 0 0 Z " fill="#6EC43D" transform="translate(214,154)"/>
<path d="M0 0 C0.91007812 0.00902344 1.82015625 0.01804688 2.7578125 0.02734375 C3.45648438 0.03894531 4.15515625 0.05054688 4.875 0.0625 C4.875 0.3925 4.875 0.7225 4.875 1.0625 C4.24851562 1.08828125 3.62203125 1.1140625 2.9765625 1.140625 C2.15929687 1.19734375 1.34203125 1.2540625 0.5 1.3125 C-0.31210937 1.35890625 -1.12421875 1.4053125 -1.9609375 1.453125 C-4.291345 1.84350529 -4.291345 1.84350529 -5.2890625 3.984375 C-5.56492187 4.67015625 -5.84078125 5.3559375 -6.125 6.0625 C-6.785 6.7225 -7.445 7.3825 -8.125 8.0625 C-8.43806802 10.01753503 -8.43806802 10.01753503 -8.4034729 12.28921509 C-8.41463638 13.17545059 -8.42579987 14.0616861 -8.43730164 14.97477722 C-8.44054192 16.43673271 -8.44054192 16.43673271 -8.44384766 17.92822266 C-8.45389328 18.95263962 -8.4639389 19.97705658 -8.47428894 21.03251648 C-8.50526698 24.43052592 -8.52219666 27.82845607 -8.5390625 31.2265625 C-8.55776239 33.57783701 -8.57733489 35.92910473 -8.5977478 38.28036499 C-8.64919958 44.47814947 -8.68875538 50.67595574 -8.72589111 56.87384033 C-8.76584915 63.1945948 -8.81697879 69.51525761 -8.8671875 75.8359375 C-8.96410119 88.2447274 -9.04845638 100.6535689 -9.125 113.0625 C-9.455 113.0625 -9.785 113.0625 -10.125 113.0625 C-10.19511385 99.19782382 -10.24780026 85.33317518 -10.28043652 71.46835804 C-10.29609943 65.03051929 -10.31734946 58.59279955 -10.35131836 52.1550293 C-10.38388899 45.94346126 -10.4018483 39.73200778 -10.40963173 33.52036095 C-10.41517933 31.14926029 -10.42601226 28.77816598 -10.44219017 26.40711403 C-10.46393347 23.08873518 -10.46696816 19.77083108 -10.46557617 16.45239258 C-10.476362 15.46983994 -10.48714783 14.48728729 -10.4982605 13.47496033 C-10.47587589 8.55083911 -10.43505393 5.01118985 -7.125 1.0625 C-4.60024538 -0.19987731 -2.81299534 -0.03606404 0 0 Z " fill="#5B5B5B" transform="translate(340.125,140.9375)"/>
<path d="M0 0 C31.68 0.495 31.68 0.495 64 1 C64 1.66 64 2.32 64 3 C42.88 3 21.76 3 0 3 C0 2.01 0 1.02 0 0 Z " fill="#5EB12D" transform="translate(126,189)"/>
<path d="M0 0 C20.46 0.33 40.92 0.66 62 1 C62 1.66 62 2.32 62 3 C42.2 3 22.4 3 2 3 C2 2.34 2 1.68 2 1 C1.34 0.67 0.68 0.34 0 0 Z " fill="#4A852F" transform="translate(230,244)"/>
<path d="M0 0 C6.6 0 13.2 0 20 0 C20 0.99 20 1.98 20 3 C13.73 2.67 7.46 2.34 1 2 C1.00523682 4.01915527 1.01047363 6.03831055 1.01586914 8.11865234 C1.0324182 14.78027002 1.04347652 21.44188858 1.05181217 28.10352135 C1.05703699 32.14356954 1.06412739 36.18359672 1.07543945 40.22363281 C1.08628254 44.120441 1.09227987 48.01722895 1.09487724 51.91405106 C1.09672892 53.40284163 1.10034463 54.89163107 1.10573006 56.38041306 C1.11295934 58.46115285 1.11399014 60.54180832 1.11352539 62.62255859 C1.115746 63.80836517 1.11796661 64.99417175 1.12025452 66.21591187 C1 69 1 69 0 71 C-0.99 70.67 -1.98 70.34 -3 70 C-2.67657623 69.47432434 -2.35315247 68.94864868 -2.01992798 68.40704346 C-0.7119776 65.32026334 -0.71953674 62.83954198 -0.68115234 59.48730469 C-0.66608391 58.52082504 -0.66608391 58.52082504 -0.65071106 57.53482056 C-0.61992177 55.41384744 -0.60285622 53.2930003 -0.5859375 51.171875 C-0.56722238 49.69784464 -0.5476487 48.22382495 -0.5272522 46.74981689 C-0.47596115 42.87669166 -0.43631938 39.00353171 -0.39910889 35.13024902 C-0.35905017 31.17528719 -0.30796637 27.22046942 -0.2578125 23.265625 C-0.16108901 15.51050808 -0.07769231 7.75533521 0 0 Z " fill="#74C741" transform="translate(290,154)"/>
<path d="M0 0 C1.58140022 -0.00956978 1.58140022 -0.00956978 3.19474792 -0.01933289 C4.32197769 -0.02044571 5.44920746 -0.02155853 6.6105957 -0.02270508 C8.35745415 -0.02769768 8.35745415 -0.02769768 10.13960266 -0.03279114 C12.5964824 -0.03784676 15.05336898 -0.04019988 17.51025391 -0.04003906 C21.28274673 -0.04223422 25.05495114 -0.06042822 28.82739258 -0.0793457 C31.21345928 -0.08227808 33.59952738 -0.08426392 35.9855957 -0.08520508 C37.68554939 -0.09598335 37.68554939 -0.09598335 39.41984558 -0.10697937 C40.46465591 -0.10390274 41.50946625 -0.10082611 42.5859375 -0.09765625 C43.50795456 -0.09908127 44.42997162 -0.10050629 45.37992859 -0.10197449 C47.59887695 0.14526367 47.59887695 0.14526367 49.59887695 2.14526367 C31.77887695 2.14526367 13.95887695 2.14526367 -4.40112305 2.14526367 C-5.06112305 3.46526367 -5.72112305 4.78526367 -6.40112305 6.14526367 C-7.39112305 6.47526367 -8.38112305 6.80526367 -9.40112305 7.14526367 C-9.73112305 5.16526367 -10.06112305 3.18526367 -10.40112305 1.14526367 C-6.87562254 0.34489443 -3.61237357 0.0148957 0 0 Z " fill="#59A42D" transform="translate(116.401123046875,224.854736328125)"/>
<path d="M0 0 C4.37707896 2.95748578 6.70972636 5.90602329 8 11 C8.35389374 15.48690614 8.2831842 19.94034272 8.1875 24.4375 C8.17396484 25.64599609 8.16042969 26.85449219 8.14648438 28.09960938 C8.11129946 31.06687082 8.06206696 34.03319937 8 37 C7.34 37 6.68 37 6 37 C5.97494385 36.20303711 5.9498877 35.40607422 5.92407227 34.58496094 C5.80801211 30.97314778 5.68533069 27.36158898 5.5625 23.75 C5.52318359 22.49574219 5.48386719 21.24148437 5.44335938 19.94921875 C5.40146484 18.74394531 5.35957031 17.53867188 5.31640625 16.296875 C5.27974854 15.18666992 5.24309082 14.07646484 5.20532227 12.93261719 C5.03289096 10.46978151 4.70404561 8.35517035 4 6 C2.68 5.67 1.36 5.34 0 5 C0 3.35 0 1.7 0 0 Z " fill="#5BA02E" transform="translate(195,194)"/>
<path d="M0 0 C1.9375 0.3125 1.9375 0.3125 4 1 C4.33 1.99 4.66 2.98 5 4 C2.24654997 9.2176271 -1.77963062 13.28105762 -7 16 C-10.375 16.75 -10.375 16.75 -13 17 C-12.505 15.515 -12.505 15.515 -12 14 C-10.35 14 -8.7 14 -7 14 C-7 13.34 -7 12.68 -7 12 C-5.35 11.67 -3.7 11.34 -2 11 C-2 10.01 -2 9.02 -2 8 C-1.34 8 -0.68 8 0 8 C-0.185625 7.236875 -0.37125 6.47375 -0.5625 5.6875 C-1 3 -1 3 0 0 Z " fill="#70C33D" transform="translate(305,229)"/>
<path d="M0 0 C6.6 0 13.2 0 20 0 C20 0.99 20 1.98 20 3 C13.73 2.67 7.46 2.34 1 2 C0.67 2.99 0.34 3.98 0 5 C0 3.35 0 1.7 0 0 Z " fill="#5CA92C" transform="translate(290,154)"/>
<path d="M0 0 C1.98 0 3.96 0 6 0 C6 0.66 6 1.32 6 2 C7.98 2 9.96 2 12 2 C11.67 2.66 11.34 3.32 11 4 C8.67624308 4.39460023 6.3406065 4.72230092 4 5 C2.66082739 5.30903983 1.32346746 5.62942911 0 6 C-1.125 2.25 -1.125 2.25 0 0 Z " fill="#7DEC3C" transform="translate(233,225)"/>
<path d="M0 0 C-0.33 0.99 -0.66 1.98 -1 3 C-4.3 3.66 -7.6 4.32 -11 5 C-11 4.34 -11 3.68 -11 3 C-11.66 3 -12.32 3 -13 3 C-13 2.34 -13 1.68 -13 1 C-11.58366664 0.83052421 -10.16691467 0.66454493 -8.75 0.5 C-7.56664062 0.36078125 -7.56664062 0.36078125 -6.359375 0.21875 C-4 0 -4 0 0 0 Z " fill="#70CC35" transform="translate(179,225)"/>
<path d="M0 0 C0 0.66 0 1.32 0 2 C-1.65 2 -3.3 2 -5 2 C-5.268125 2.639375 -5.53625 3.27875 -5.8125 3.9375 C-7 6 -7 6 -10 7 C-10.33 5.02 -10.66 3.04 -11 1 C-7.26562152 0.12132271 -3.83225427 -0.08912219 0 0 Z " fill="#6BBC34" transform="translate(117,225)"/>
<path d="M0 0 C0.33 0 0.66 0 1 0 C1.19335938 0.85464844 1.38671875 1.70929688 1.5859375 2.58984375 C1.84632813 3.69457031 2.10671875 4.79929688 2.375 5.9375 C2.63023437 7.03964844 2.88546875 8.14179688 3.1484375 9.27734375 C3.42945313 10.17582031 3.71046875 11.07429687 4 12 C4.66 12.33 5.32 12.66 6 13 C6.625 16.0625 6.625 16.0625 7 19 C1.60544278 14.77183353 0.016576 9.70110303 -1 3 C-0.67 2.01 -0.34 1.02 0 0 Z " fill="#67B23A" transform="translate(214,222)"/>
<path d="M0 0 C0.66 0.66 1.32 1.32 2 2 C1.63723355 4.82957829 0.90305236 7.29084291 0 10 C-0.99 10 -1.98 10 -3 10 C-3 9.34 -3 8.68 -3 8 C-3.66 8 -4.32 8 -5 8 C-4.67 6.68 -4.34 5.36 -4 4 C-3.34 4 -2.68 4 -2 4 C-1.34 2.68 -0.68 1.36 0 0 Z " fill="#6DD92F" transform="translate(126,182)"/>
<path d="M0 0 C1.9375 0.3125 1.9375 0.3125 4 1 C4.33 1.99 4.66 2.98 5 4 C3.0625 6.6875 3.0625 6.6875 1 9 C-1.125 3.375 -1.125 3.375 0 0 Z " fill="#6CD434" transform="translate(305,229)"/>
<path d="M0 0 C0.99 0.33 1.98 0.66 3 1 C2.67 2.98 2.34 4.96 2 7 C2.66 7.33 3.32 7.66 4 8 C3.34 9.32 2.68 10.64 2 12 C-0.05257931 8.55166676 -1.0632763 6.68338409 -0.6875 2.625 C-0.460625 1.75875 -0.23375 0.8925 0 0 Z " fill="#6BC737" transform="translate(107,191)"/>
<path d="M0 0 C0.99 0 1.98 0 3 0 C1.55922954 3.36179774 -0.24750021 5.59156268 -3 8 C-3.66 8 -4.32 8 -5 8 C-5.33 7.01 -5.66 6.02 -6 5 C-5.01 5 -4.02 5 -3 5 C-3 4.01 -3 3.02 -3 2 C-2.01 2 -1.02 2 0 2 C0 1.34 0 0.68 0 0 Z " fill="#67BB38" transform="translate(197,236)"/>
<path d="M0 0 C3.35770877 2.23847252 3.2145965 2.40958399 4 6 C4.66 6.66 5.32 7.32 6 8 C6 8.66 6 9.32 6 10 C4.125 9.6875 4.125 9.6875 2 9 C-0.29013653 5.5647952 -0.17842973 4.014669 0 0 Z " fill="#7EE03C" transform="translate(220,233)"/>
<path d="M0 0 C5.79732739 4.27171492 5.79732739 4.27171492 7 8 C6.67 8.99 6.34 9.98 6 11 C5.34 10.67 4.68 10.34 4 10 C4 8.68 4 7.36 4 6 C2.68 5.67 1.36 5.34 0 5 C0 3.35 0 1.7 0 0 Z " fill="#65BA39" transform="translate(195,194)"/>
<path d="M0 0 C0.33 0 0.66 0 1 0 C1.33 2.64 1.66 5.28 2 8 C2.66 8 3.32 8 4 8 C3.67 10.31 3.34 12.62 3 15 C2.34 15 1.68 15 1 15 C-0.00109515 11.68929162 -0.10356134 8.69915231 -0.0625 5.25 C-0.05347656 4.26515625 -0.04445313 3.2803125 -0.03515625 2.265625 C-0.02355469 1.51796875 -0.01195313 0.7703125 0 0 Z " fill="#84E54D" transform="translate(106,230)"/>
<path d="M0 0 C3.26954202 0.56371414 4.82575883 1.49962266 7 4 C3.37673261 5.2077558 2.35853631 4.54311128 -1 3 C-0.67 2.01 -0.34 1.02 0 0 Z " fill="#63B434" transform="translate(225,241)"/>
<path d="M0 0 C0.66 0.66 1.32 1.32 2 2 C1.7578125 4.6015625 1.7578125 4.6015625 1.125 7.625 C0.81949219 9.12933594 0.81949219 9.12933594 0.5078125 10.6640625 C0.34023438 11.43492187 0.17265625 12.20578125 0 13 C-0.33 13 -0.66 13 -1 13 C-1.02708567 11.39592672 -1.04643483 9.7917215 -1.0625 8.1875 C-1.07410156 7.29417969 -1.08570313 6.40085938 -1.09765625 5.48046875 C-1 3 -1 3 0 0 Z " fill="#75E945" transform="translate(310,154)"/>
</svg>
